solid OpenSCAD_Model
  facet normal 0.987688 0.156434 0
    outer loop
      vertex 70 0 20
      vertex 66.574 21.6312 0
      vertex 66.574 21.6312 20
    endloop
  endfacet
  facet normal 0.987688 0.156434 0
    outer loop
      vertex 66.574 21.6312 0
      vertex 70 0 20
      vertex 70 0 0
    endloop
  endfacet
  facet normal -0.987688 0.156434 0
    outer loop
      vertex -70 0 0
      vertex -66.574 21.6312 20
      vertex -66.574 21.6312 0
    endloop
  endfacet
  facet normal -0.987688 0.156434 0
    outer loop
      vertex -66.574 21.6312 20
      vertex -70 0 0
      vertex -70 0 20
    endloop
  endfacet
  facet normal 0.156434 0.987688 -0
    outer loop
      vertex 21.6312 66.574 0
      vertex 0 70 20
      vertex 21.6312 66.574 20
    endloop
  endfacet
  facet normal 0.156434 0.987688 0
    outer loop
      vertex 0 70 20
      vertex 21.6312 66.574 0
      vertex 0 70 0
    endloop
  endfacet
  facet normal -0.156434 -0.987688 0
    outer loop
      vertex -21.6312 -66.574 0
      vertex 0 -70 20
      vertex -21.6312 -66.574 20
    endloop
  endfacet
  facet normal -0.156434 -0.987688 -0
    outer loop
      vertex 0 -70 20
      vertex -21.6312 -66.574 0
      vertex 0 -70 0
    endloop
  endfacet
  facet normal 0 0 -1
    outer loop
      vertex 30 0 0
      vertex 70 0 0
      vertex 66.574 -21.6312 0
    endloop
  endfacet
  facet normal 0 0 -1
    outer loop
      vertex 28.5317 -9.27051 0
      vertex 66.574 -21.6312 0
      vertex 56.6312 -41.145 0
    endloop
  endfacet
  facet normal 0 0 -1
    outer loop
      vertex 70 0 0
      vertex 30 0 0
      vertex 66.574 21.6312 0
    endloop
  endfacet
  facet normal 0 0 -1
    outer loop
      vertex 24.2705 -17.6336 0
      vertex 56.6312 -41.145 0
      vertex 41.145 -56.6312 0
    endloop
  endfacet
  facet normal 0 0 -1
    outer loop
      vertex 28.5317 9.27051 0
      vertex 66.574 21.6312 0
      vertex 30 0 0
    endloop
  endfacet
  facet normal -0 0 -1
    outer loop
      vertex 66.574 21.6312 0
      vertex 28.5317 9.27051 0
      vertex 56.6312 41.145 0
    endloop
  endfacet
  facet normal 0 0 -1
    outer loop
      vertex 66.574 -21.6312 0
      vertex 28.5317 -9.27051 0
      vertex 30 0 0
    endloop
  endfacet
  facet normal 0 0 -1
    outer loop
      vertex 56.6312 -41.145 0
      vertex 24.2705 -17.6336 0
      vertex 28.5317 -9.27051 0
    endloop
  endfacet
  facet normal 0 0 -1
    outer loop
      vertex 17.6336 -24.2705 0
      vertex 41.145 -56.6312 0
      vertex 21.6312 -66.574 0
    endloop
  endfacet
  facet normal 0 0 -1
    outer loop
      vertex 41.145 -56.6312 0
      vertex 17.6336 -24.2705 0
      vertex 24.2705 -17.6336 0
    endloop
  endfacet
  facet normal 0 0 -1
    outer loop
      vertex 21.6312 -66.574 0
      vertex 9.27051 -28.5317 0
      vertex 17.6336 -24.2705 0
    endloop
  endfacet
  facet normal 0 0 -1
    outer loop
      vertex 0 -70 0
      vertex 9.27051 -28.5317 0
      vertex 21.6312 -66.574 0
    endloop
  endfacet
  facet normal 0 0 -1
    outer loop
      vertex 0 -70 0
      vertex 0 -30 0
      vertex 9.27051 -28.5317 0
    endloop
  endfacet
  facet normal 0 0 -1
    outer loop
      vertex 0 -70 0
      vertex -9.27051 -28.5317 0
      vertex 0 -30 0
    endloop
  endfacet
  facet normal 0 0 -1
    outer loop
      vertex -21.6312 -66.574 0
      vertex -9.27051 -28.5317 0
      vertex 0 -70 0
    endloop
  endfacet
  facet normal -0 0 -1
    outer loop
      vertex -9.27051 -28.5317 0
      vertex -21.6312 -66.574 0
      vertex -17.6336 -24.2705 0
    endloop
  endfacet
  facet normal 0 0 -1
    outer loop
      vertex -41.145 -56.6312 0
      vertex -17.6336 -24.2705 0
      vertex -21.6312 -66.574 0
    endloop
  endfacet
  facet normal -0 0 -1
    outer loop
      vertex -17.6336 -24.2705 0
      vertex -41.145 -56.6312 0
      vertex -24.2705 -17.6336 0
    endloop
  endfacet
  facet normal 0 0 -1
    outer loop
      vertex -56.6312 -41.145 0
      vertex -24.2705 -17.6336 0
      vertex -41.145 -56.6312 0
    endloop
  endfacet
  facet normal -0 0 -1
    outer loop
      vertex -24.2705 -17.6336 0
      vertex -56.6312 -41.145 0
      vertex -28.5317 -9.27051 0
    endloop
  endfacet
  facet normal 0 0 -1
    outer loop
      vertex 24.2705 17.6336 0
      vertex 56.6312 41.145 0
      vertex 28.5317 9.27051 0
    endloop
  endfacet
  facet normal -0 0 -1
    outer loop
      vertex 56.6312 41.145 0
      vertex 24.2705 17.6336 0
      vertex 41.145 56.6312 0
    endloop
  endfacet
  facet normal 0 0 -1
    outer loop
      vertex 17.6336 24.2705 0
      vertex 41.145 56.6312 0
      vertex 24.2705 17.6336 0
    endloop
  endfacet
  facet normal -0 0 -1
    outer loop
      vertex 41.145 56.6312 0
      vertex 17.6336 24.2705 0
      vertex 21.6312 66.574 0
    endloop
  endfacet
  facet normal 0 0 -1
    outer loop
      vertex 9.27051 28.5317 0
      vertex 21.6312 66.574 0
      vertex 17.6336 24.2705 0
    endloop
  endfacet
  facet normal 0 0 -1
    outer loop
      vertex 0 30 0
      vertex 21.6312 66.574 0
      vertex 9.27051 28.5317 0
    endloop
  endfacet
  facet normal 0 0 -1
    outer loop
      vertex 0 30 0
      vertex 0 70 0
      vertex 21.6312 66.574 0
    endloop
  endfacet
  facet normal 0 0 -1
    outer loop
      vertex -9.27051 28.5317 0
      vertex 0 70 0
      vertex 0 30 0
    endloop
  endfacet
  facet normal 0 0 -1
    outer loop
      vertex -21.6312 66.574 0
      vertex -9.27051 28.5317 0
      vertex -17.6336 24.2705 0
    endloop
  endfacet
  facet normal 0 0 -1
    outer loop
      vertex -9.27051 28.5317 0
      vertex -21.6312 66.574 0
      vertex 0 70 0
    endloop
  endfacet
  facet normal 0 0 -1
    outer loop
      vertex -41.145 56.6312 0
      vertex -17.6336 24.2705 0
      vertex -24.2705 17.6336 0
    endloop
  endfacet
  facet normal 0 0 -1
    outer loop
      vertex -56.6312 41.145 0
      vertex -24.2705 17.6336 0
      vertex -28.5317 9.27051 0
    endloop
  endfacet
  facet normal 0 0 -1
    outer loop
      vertex -66.574 21.6312 0
      vertex -28.5317 9.27051 0
      vertex -30 0 0
    endloop
  endfacet
  facet normal 0 0 -1
    outer loop
      vertex -66.574 -21.6312 0
      vertex -28.5317 -9.27051 0
      vertex -56.6312 -41.145 0
    endloop
  endfacet
  facet normal 0 0 -1
    outer loop
      vertex -17.6336 24.2705 0
      vertex -41.145 56.6312 0
      vertex -21.6312 66.574 0
    endloop
  endfacet
  facet normal -0 0 -1
    outer loop
      vertex -28.5317 -9.27051 0
      vertex -66.574 -21.6312 0
      vertex -30 0 0
    endloop
  endfacet
  facet normal 0 0 -1
    outer loop
      vertex -24.2705 17.6336 0
      vertex -56.6312 41.145 0
      vertex -41.145 56.6312 0
    endloop
  endfacet
  facet normal 0 0 -1
    outer loop
      vertex -70 0 0
      vertex -30 0 0
      vertex -66.574 -21.6312 0
    endloop
  endfacet
  facet normal 0 0 -1
    outer loop
      vertex -28.5317 9.27051 0
      vertex -66.574 21.6312 0
      vertex -56.6312 41.145 0
    endloop
  endfacet
  facet normal 0 0 -1
    outer loop
      vertex -30 0 0
      vertex -70 0 0
      vertex -66.574 21.6312 0
    endloop
  endfacet
  facet normal 0.707107 0.707107 0
    outer loop
      vertex 56.6312 41.145 20
      vertex 41.145 56.6312 0
      vertex 41.145 56.6312 20
    endloop
  endfacet
  facet normal 0.707107 0.707107 0
    outer loop
      vertex 41.145 56.6312 0
      vertex 56.6312 41.145 20
      vertex 56.6312 41.145 0
    endloop
  endfacet
  facet normal 0.891006 0.453991 0
    outer loop
      vertex 66.574 21.6312 20
      vertex 56.6312 41.145 0
      vertex 56.6312 41.145 20
    endloop
  endfacet
  facet normal 0.891006 0.453991 0
    outer loop
      vertex 56.6312 41.145 0
      vertex 66.574 21.6312 20
      vertex 66.574 21.6312 0
    endloop
  endfacet
  facet normal 0.453991 0.891006 -0
    outer loop
      vertex 41.145 56.6312 0
      vertex 21.6312 66.574 20
      vertex 41.145 56.6312 20
    endloop
  endfacet
  facet normal 0.453991 0.891006 0
    outer loop
      vertex 21.6312 66.574 20
      vertex 41.145 56.6312 0
      vertex 21.6312 66.574 0
    endloop
  endfacet
  facet normal -0.453991 0.891006 0
    outer loop
      vertex -21.6312 66.574 0
      vertex -41.145 56.6312 20
      vertex -21.6312 66.574 20
    endloop
  endfacet
  facet normal -0.453991 0.891006 0
    outer loop
      vertex -41.145 56.6312 20
      vertex -21.6312 66.574 0
      vertex -41.145 56.6312 0
    endloop
  endfacet
  facet normal -0.707107 0.707107 0
    outer loop
      vertex -56.6312 41.145 0
      vertex -41.145 56.6312 20
      vertex -41.145 56.6312 0
    endloop
  endfacet
  facet normal -0.707107 0.707107 0
    outer loop
      vertex -41.145 56.6312 20
      vertex -56.6312 41.145 0
      vertex -56.6312 41.145 20
    endloop
  endfacet
  facet normal -0.156434 0.987688 0
    outer loop
      vertex 0 70 0
      vertex -21.6312 66.574 20
      vertex 0 70 20
    endloop
  endfacet
  facet normal -0.156434 0.987688 0
    outer loop
      vertex -21.6312 66.574 20
      vertex 0 70 0
      vertex -21.6312 66.574 0
    endloop
  endfacet
  facet normal 0.891006 -0.453991 0
    outer loop
      vertex 56.6312 -41.145 20
      vertex 66.574 -21.6312 0
      vertex 66.574 -21.6312 20
    endloop
  endfacet
  facet normal 0.891006 -0.453991 0
    outer loop
      vertex 66.574 -21.6312 0
      vertex 56.6312 -41.145 20
      vertex 56.6312 -41.145 0
    endloop
  endfacet
  facet normal -0.707107 -0.707107 0
    outer loop
      vertex -41.145 -56.6312 0
      vertex -56.6312 -41.145 20
      vertex -56.6312 -41.145 0
    endloop
  endfacet
  facet normal -0.707107 -0.707107 0
    outer loop
      vertex -56.6312 -41.145 20
      vertex -41.145 -56.6312 0
      vertex -41.145 -56.6312 20
    endloop
  endfacet
  facet normal -0.987688 -0.156434 0
    outer loop
      vertex -66.574 -21.6312 0
      vertex -70 0 20
      vertex -70 0 0
    endloop
  endfacet
  facet normal -0.987688 -0.156434 0
    outer loop
      vertex -70 0 20
      vertex -66.574 -21.6312 0
      vertex -66.574 -21.6312 20
    endloop
  endfacet
  facet normal -0.891006 0.453991 0
    outer loop
      vertex -66.574 21.6312 0
      vertex -56.6312 41.145 20
      vertex -56.6312 41.145 0
    endloop
  endfacet
  facet normal -0.891006 0.453991 0
    outer loop
      vertex -56.6312 41.145 20
      vertex -66.574 21.6312 0
      vertex -66.574 21.6312 20
    endloop
  endfacet
  facet normal 0 0 1
    outer loop
      vertex 60 0 20
      vertex 70 0 20
      vertex 66.574 21.6312 20
    endloop
  endfacet
  facet normal 0 0 1
    outer loop
      vertex 70 0 20
      vertex 60 0 20
      vertex 66.574 -21.6312 20
    endloop
  endfacet
  facet normal 0 0 1
    outer loop
      vertex 66.574 21.6312 20
      vertex 57.0634 18.541 20
      vertex 60 0 20
    endloop
  endfacet
  facet normal 0 0 1
    outer loop
      vertex 56.6312 41.145 20
      vertex 57.0634 18.541 20
      vertex 66.574 21.6312 20
    endloop
  endfacet
  facet normal 0 0 1
    outer loop
      vertex 56.6312 41.145 20
      vertex 48.541 35.2671 20
      vertex 57.0634 18.541 20
    endloop
  endfacet
  facet normal 0 0 1
    outer loop
      vertex 41.145 56.6312 20
      vertex 48.541 35.2671 20
      vertex 56.6312 41.145 20
    endloop
  endfacet
  facet normal 0 0 1
    outer loop
      vertex 41.145 56.6312 20
      vertex 35.2671 48.541 20
      vertex 48.541 35.2671 20
    endloop
  endfacet
  facet normal 0 0 1
    outer loop
      vertex 21.6312 66.574 20
      vertex 35.2671 48.541 20
      vertex 41.145 56.6312 20
    endloop
  endfacet
  facet normal 0 0 1
    outer loop
      vertex 21.6312 66.574 20
      vertex 18.541 57.0634 20
      vertex 35.2671 48.541 20
    endloop
  endfacet
  facet normal 0 0 1
    outer loop
      vertex 0 70 20
      vertex 18.541 57.0634 20
      vertex 21.6312 66.574 20
    endloop
  endfacet
  facet normal 0 0 1
    outer loop
      vertex 0 70 20
      vertex 0 60 20
      vertex 18.541 57.0634 20
    endloop
  endfacet
  facet normal 0 0 1
    outer loop
      vertex 0 70 20
      vertex -18.541 57.0634 20
      vertex 0 60 20
    endloop
  endfacet
  facet normal -0 0 1
    outer loop
      vertex -21.6312 66.574 20
      vertex -18.541 57.0634 20
      vertex 0 70 20
    endloop
  endfacet
  facet normal 0 0 1
    outer loop
      vertex -21.6312 66.574 20
      vertex -35.2671 48.541 20
      vertex -18.541 57.0634 20
    endloop
  endfacet
  facet normal -0 0 1
    outer loop
      vertex -41.145 56.6312 20
      vertex -35.2671 48.541 20
      vertex -21.6312 66.574 20
    endloop
  endfacet
  facet normal 0 0 1
    outer loop
      vertex -41.145 56.6312 20
      vertex -48.541 35.2671 20
      vertex -35.2671 48.541 20
    endloop
  endfacet
  facet normal -0 0 1
    outer loop
      vertex -56.6312 41.145 20
      vertex -48.541 35.2671 20
      vertex -41.145 56.6312 20
    endloop
  endfacet
  facet normal 0 0 1
    outer loop
      vertex -56.6312 41.145 20
      vertex -57.0634 18.541 20
      vertex -48.541 35.2671 20
    endloop
  endfacet
  facet normal -0 0 1
    outer loop
      vertex -66.574 21.6312 20
      vertex -57.0634 18.541 20
      vertex -56.6312 41.145 20
    endloop
  endfacet
  facet normal 0 0 1
    outer loop
      vertex -57.0634 18.541 20
      vertex -66.574 21.6312 20
      vertex -60 0 20
    endloop
  endfacet
  facet normal -0 0 1
    outer loop
      vertex 57.0634 -18.541 20
      vertex 66.574 -21.6312 20
      vertex 60 0 20
    endloop
  endfacet
  facet normal 0 0 1
    outer loop
      vertex 57.0634 -18.541 20
      vertex 56.6312 -41.145 20
      vertex 66.574 -21.6312 20
    endloop
  endfacet
  facet normal -0 0 1
    outer loop
      vertex 48.541 -35.2671 20
      vertex 56.6312 -41.145 20
      vertex 57.0634 -18.541 20
    endloop
  endfacet
  facet normal 0 0 1
    outer loop
      vertex 48.541 -35.2671 20
      vertex 41.145 -56.6312 20
      vertex 56.6312 -41.145 20
    endloop
  endfacet
  facet normal -0 0 1
    outer loop
      vertex 35.2671 -48.541 20
      vertex 41.145 -56.6312 20
      vertex 48.541 -35.2671 20
    endloop
  endfacet
  facet normal 0 0 1
    outer loop
      vertex 35.2671 -48.541 20
      vertex 21.6312 -66.574 20
      vertex 41.145 -56.6312 20
    endloop
  endfacet
  facet normal -0 0 1
    outer loop
      vertex 18.541 -57.0634 20
      vertex 21.6312 -66.574 20
      vertex 35.2671 -48.541 20
    endloop
  endfacet
  facet normal -0 0 1
    outer loop
      vertex 0 -60 20
      vertex 21.6312 -66.574 20
      vertex 18.541 -57.0634 20
    endloop
  endfacet
  facet normal 0 0 1
    outer loop
      vertex 0 -60 20
      vertex 0 -70 20
      vertex 21.6312 -66.574 20
    endloop
  endfacet
  facet normal 0 0 1
    outer loop
      vertex -18.541 -57.0634 20
      vertex 0 -70 20
      vertex 0 -60 20
    endloop
  endfacet
  facet normal 0 0 1
    outer loop
      vertex -18.541 -57.0634 20
      vertex -21.6312 -66.574 20
      vertex 0 -70 20
    endloop
  endfacet
  facet normal 0 0 1
    outer loop
      vertex -35.2671 -48.541 20
      vertex -21.6312 -66.574 20
      vertex -18.541 -57.0634 20
    endloop
  endfacet
  facet normal 0 0 1
    outer loop
      vertex -35.2671 -48.541 20
      vertex -41.145 -56.6312 20
      vertex -21.6312 -66.574 20
    endloop
  endfacet
  facet normal 0 0 1
    outer loop
      vertex -48.541 -35.2671 20
      vertex -41.145 -56.6312 20
      vertex -35.2671 -48.541 20
    endloop
  endfacet
  facet normal 0 0 1
    outer loop
      vertex -48.541 -35.2671 20
      vertex -56.6312 -41.145 20
      vertex -41.145 -56.6312 20
    endloop
  endfacet
  facet normal 0 0 1
    outer loop
      vertex -57.0634 -18.541 20
      vertex -56.6312 -41.145 20
      vertex -48.541 -35.2671 20
    endloop
  endfacet
  facet normal 0 0 1
    outer loop
      vertex -66.574 -21.6312 20
      vertex -57.0634 -18.541 20
      vertex -60 0 20
    endloop
  endfacet
  facet normal 0 0 1
    outer loop
      vertex -70 0 20
      vertex -60 0 20
      vertex -66.574 21.6312 20
    endloop
  endfacet
  facet normal 0 0 1
    outer loop
      vertex -57.0634 -18.541 20
      vertex -66.574 -21.6312 20
      vertex -56.6312 -41.145 20
    endloop
  endfacet
  facet normal 0 0 1
    outer loop
      vertex -60 0 20
      vertex -70 0 20
      vertex -66.574 -21.6312 20
    endloop
  endfacet
  facet normal 0 0 1
    outer loop
      vertex 30 0 20
      vertex 40 0 20
      vertex 38.0423 12.3607 20
    endloop
  endfacet
  facet normal 0 0 1
    outer loop
      vertex 28.5317 9.27051 20
      vertex 38.0423 12.3607 20
      vertex 32.3607 23.5114 20
    endloop
  endfacet
  facet normal 0 0 1
    outer loop
      vertex 40 0 20
      vertex 30 0 20
      vertex 38.0423 -12.3607 20
    endloop
  endfacet
  facet normal -0 0 1
    outer loop
      vertex 28.5317 -9.27051 20
      vertex 38.0423 -12.3607 20
      vertex 30 0 20
    endloop
  endfacet
  facet normal 0 0 1
    outer loop
      vertex 38.0423 12.3607 20
      vertex 28.5317 9.27051 20
      vertex 30 0 20
    endloop
  endfacet
  facet normal 0 0 1
    outer loop
      vertex 32.3607 23.5114 20
      vertex 24.2705 17.6336 20
      vertex 28.5317 9.27051 20
    endloop
  endfacet
  facet normal 0 0 1
    outer loop
      vertex 23.5114 32.3607 20
      vertex 24.2705 17.6336 20
      vertex 32.3607 23.5114 20
    endloop
  endfacet
  facet normal 0 0 1
    outer loop
      vertex 23.5114 32.3607 20
      vertex 17.6336 24.2705 20
      vertex 24.2705 17.6336 20
    endloop
  endfacet
  facet normal 0 0 1
    outer loop
      vertex 12.3607 38.0423 20
      vertex 17.6336 24.2705 20
      vertex 23.5114 32.3607 20
    endloop
  endfacet
  facet normal 0 0 1
    outer loop
      vertex 12.3607 38.0423 20
      vertex 9.27051 28.5317 20
      vertex 17.6336 24.2705 20
    endloop
  endfacet
  facet normal 0 0 1
    outer loop
      vertex 0 40 20
      vertex 9.27051 28.5317 20
      vertex 12.3607 38.0423 20
    endloop
  endfacet
  facet normal 0 0 1
    outer loop
      vertex 0 40 20
      vertex 0 30 20
      vertex 9.27051 28.5317 20
    endloop
  endfacet
  facet normal 0 0 1
    outer loop
      vertex 0 40 20
      vertex -9.27051 28.5317 20
      vertex 0 30 20
    endloop
  endfacet
  facet normal -0 0 1
    outer loop
      vertex -12.3607 38.0423 20
      vertex -9.27051 28.5317 20
      vertex 0 40 20
    endloop
  endfacet
  facet normal 0 0 1
    outer loop
      vertex -12.3607 38.0423 20
      vertex -17.6336 24.2705 20
      vertex -9.27051 28.5317 20
    endloop
  endfacet
  facet normal -0 0 1
    outer loop
      vertex -23.5114 32.3607 20
      vertex -17.6336 24.2705 20
      vertex -12.3607 38.0423 20
    endloop
  endfacet
  facet normal 0 0 1
    outer loop
      vertex -23.5114 32.3607 20
      vertex -24.2705 17.6336 20
      vertex -17.6336 24.2705 20
    endloop
  endfacet
  facet normal -0 0 1
    outer loop
      vertex -32.3607 23.5114 20
      vertex -24.2705 17.6336 20
      vertex -23.5114 32.3607 20
    endloop
  endfacet
  facet normal -0 0 1
    outer loop
      vertex -38.0423 12.3607 20
      vertex -28.5317 9.27051 20
      vertex -32.3607 23.5114 20
    endloop
  endfacet
  facet normal 0 0 1
    outer loop
      vertex -24.2705 17.6336 20
      vertex -32.3607 23.5114 20
      vertex -28.5317 9.27051 20
    endloop
  endfacet
  facet normal 0 0 1
    outer loop
      vertex 38.0423 -12.3607 20
      vertex 28.5317 -9.27051 20
      vertex 32.3607 -23.5114 20
    endloop
  endfacet
  facet normal -0 0 1
    outer loop
      vertex 24.2705 -17.6336 20
      vertex 32.3607 -23.5114 20
      vertex 28.5317 -9.27051 20
    endloop
  endfacet
  facet normal 0 0 1
    outer loop
      vertex 24.2705 -17.6336 20
      vertex 23.5114 -32.3607 20
      vertex 32.3607 -23.5114 20
    endloop
  endfacet
  facet normal -0 0 1
    outer loop
      vertex 17.6336 -24.2705 20
      vertex 23.5114 -32.3607 20
      vertex 24.2705 -17.6336 20
    endloop
  endfacet
  facet normal 0 0 1
    outer loop
      vertex 17.6336 -24.2705 20
      vertex 12.3607 -38.0423 20
      vertex 23.5114 -32.3607 20
    endloop
  endfacet
  facet normal -0 0 1
    outer loop
      vertex 9.27051 -28.5317 20
      vertex 12.3607 -38.0423 20
      vertex 17.6336 -24.2705 20
    endloop
  endfacet
  facet normal -0 0 1
    outer loop
      vertex 0 -30 20
      vertex 12.3607 -38.0423 20
      vertex 9.27051 -28.5317 20
    endloop
  endfacet
  facet normal 0 0 1
    outer loop
      vertex 0 -30 20
      vertex 0 -40 20
      vertex 12.3607 -38.0423 20
    endloop
  endfacet
  facet normal 0 0 1
    outer loop
      vertex -9.27051 -28.5317 20
      vertex 0 -40 20
      vertex 0 -30 20
    endloop
  endfacet
  facet normal 0 0 1
    outer loop
      vertex -9.27051 -28.5317 20
      vertex -12.3607 -38.0423 20
      vertex 0 -40 20
    endloop
  endfacet
  facet normal 0 0 1
    outer loop
      vertex -17.6336 -24.2705 20
      vertex -12.3607 -38.0423 20
      vertex -9.27051 -28.5317 20
    endloop
  endfacet
  facet normal 0 0 1
    outer loop
      vertex -17.6336 -24.2705 20
      vertex -23.5114 -32.3607 20
      vertex -12.3607 -38.0423 20
    endloop
  endfacet
  facet normal 0 0 1
    outer loop
      vertex -24.2705 -17.6336 20
      vertex -23.5114 -32.3607 20
      vertex -17.6336 -24.2705 20
    endloop
  endfacet
  facet normal 0 0 1
    outer loop
      vertex -32.3607 -23.5114 20
      vertex -24.2705 -17.6336 20
      vertex -28.5317 -9.27051 20
    endloop
  endfacet
  facet normal 0 0 1
    outer loop
      vertex -24.2705 -17.6336 20
      vertex -32.3607 -23.5114 20
      vertex -23.5114 -32.3607 20
    endloop
  endfacet
  facet normal 0 0 1
    outer loop
      vertex -38.0423 -12.3607 20
      vertex -28.5317 -9.27051 20
      vertex -30 0 20
    endloop
  endfacet
  facet normal 0 0 1
    outer loop
      vertex -28.5317 9.27051 20
      vertex -38.0423 12.3607 20
      vertex -30 0 20
    endloop
  endfacet
  facet normal 0 0 1
    outer loop
      vertex -40 0 20
      vertex -30 0 20
      vertex -38.0423 12.3607 20
    endloop
  endfacet
  facet normal 0 0 1
    outer loop
      vertex -28.5317 -9.27051 20
      vertex -38.0423 -12.3607 20
      vertex -32.3607 -23.5114 20
    endloop
  endfacet
  facet normal 0 0 1
    outer loop
      vertex -30 0 20
      vertex -40 0 20
      vertex -38.0423 -12.3607 20
    endloop
  endfacet
  facet normal 0.156434 -0.987688 0
    outer loop
      vertex 0 -70 0
      vertex 21.6312 -66.574 20
      vertex 0 -70 20
    endloop
  endfacet
  facet normal 0.156434 -0.987688 0
    outer loop
      vertex 21.6312 -66.574 20
      vertex 0 -70 0
      vertex 21.6312 -66.574 0
    endloop
  endfacet
  facet normal 0.707107 -0.707107 0
    outer loop
      vertex 41.145 -56.6312 20
      vertex 56.6312 -41.145 0
      vertex 56.6312 -41.145 20
    endloop
  endfacet
  facet normal 0.707107 -0.707107 0
    outer loop
      vertex 56.6312 -41.145 0
      vertex 41.145 -56.6312 20
      vertex 41.145 -56.6312 0
    endloop
  endfacet
  facet normal -0.453991 -0.891006 0
    outer loop
      vertex -41.145 -56.6312 0
      vertex -21.6312 -66.574 20
      vertex -41.145 -56.6312 20
    endloop
  endfacet
  facet normal -0.453991 -0.891006 -0
    outer loop
      vertex -21.6312 -66.574 20
      vertex -41.145 -56.6312 0
      vertex -21.6312 -66.574 0
    endloop
  endfacet
  facet normal -0.891006 -0.453991 0
    outer loop
      vertex -56.6312 -41.145 0
      vertex -66.574 -21.6312 20
      vertex -66.574 -21.6312 0
    endloop
  endfacet
  facet normal -0.891006 -0.453991 0
    outer loop
      vertex -66.574 -21.6312 20
      vertex -56.6312 -41.145 0
      vertex -56.6312 -41.145 20
    endloop
  endfacet
  facet normal 0.987688 -0.156434 0
    outer loop
      vertex 66.574 -21.6312 20
      vertex 70 0 0
      vertex 70 0 20
    endloop
  endfacet
  facet normal 0.987688 -0.156434 0
    outer loop
      vertex 70 0 0
      vertex 66.574 -21.6312 20
      vertex 66.574 -21.6312 0
    endloop
  endfacet
  facet normal 0.453991 -0.891006 0
    outer loop
      vertex 21.6312 -66.574 0
      vertex 41.145 -56.6312 20
      vertex 21.6312 -66.574 20
    endloop
  endfacet
  facet normal 0.453991 -0.891006 0
    outer loop
      vertex 41.145 -56.6312 20
      vertex 21.6312 -66.574 0
      vertex 41.145 -56.6312 0
    endloop
  endfacet
  facet normal -0.987688 -0.156434 0
    outer loop
      vertex 30 0 0
      vertex 28.5317 9.27051 20
      vertex 28.5317 9.27051 0
    endloop
  endfacet
  facet normal -0.987688 -0.156434 0
    outer loop
      vertex 28.5317 9.27051 20
      vertex 30 0 0
      vertex 30 0 20
    endloop
  endfacet
  facet normal 0.987688 -0.156434 0
    outer loop
      vertex -30 0 20
      vertex -28.5317 9.27051 0
      vertex -28.5317 9.27051 20
    endloop
  endfacet
  facet normal 0.987688 -0.156434 0
    outer loop
      vertex -28.5317 9.27051 0
      vertex -30 0 20
      vertex -30 0 0
    endloop
  endfacet
  facet normal -0.156434 -0.987688 0
    outer loop
      vertex 0 30 0
      vertex 9.27051 28.5317 20
      vertex 0 30 20
    endloop
  endfacet
  facet normal -0.156434 -0.987688 -0
    outer loop
      vertex 9.27051 28.5317 20
      vertex 0 30 0
      vertex 9.27051 28.5317 0
    endloop
  endfacet
  facet normal 0.156434 0.987688 -0
    outer loop
      vertex 0 -30 0
      vertex -9.27051 -28.5317 20
      vertex 0 -30 20
    endloop
  endfacet
  facet normal 0.156434 0.987688 0
    outer loop
      vertex -9.27051 -28.5317 20
      vertex 0 -30 0
      vertex -9.27051 -28.5317 0
    endloop
  endfacet
  facet normal -0.707107 -0.707107 0
    outer loop
      vertex 24.2705 17.6336 0
      vertex 17.6336 24.2705 20
      vertex 17.6336 24.2705 0
    endloop
  endfacet
  facet normal -0.707107 -0.707107 0
    outer loop
      vertex 17.6336 24.2705 20
      vertex 24.2705 17.6336 0
      vertex 24.2705 17.6336 20
    endloop
  endfacet
  facet normal -0.891006 -0.453991 0
    outer loop
      vertex 28.5317 9.27051 0
      vertex 24.2705 17.6336 20
      vertex 24.2705 17.6336 0
    endloop
  endfacet
  facet normal -0.891006 -0.453991 0
    outer loop
      vertex 24.2705 17.6336 20
      vertex 28.5317 9.27051 0
      vertex 28.5317 9.27051 20
    endloop
  endfacet
  facet normal -0.453991 -0.891006 0
    outer loop
      vertex 9.27051 28.5317 0
      vertex 17.6336 24.2705 20
      vertex 9.27051 28.5317 20
    endloop
  endfacet
  facet normal -0.453991 -0.891006 -0
    outer loop
      vertex 17.6336 24.2705 20
      vertex 9.27051 28.5317 0
      vertex 17.6336 24.2705 0
    endloop
  endfacet
  facet normal 0.453991 -0.891006 0
    outer loop
      vertex -17.6336 24.2705 0
      vertex -9.27051 28.5317 20
      vertex -17.6336 24.2705 20
    endloop
  endfacet
  facet normal 0.453991 -0.891006 0
    outer loop
      vertex -9.27051 28.5317 20
      vertex -17.6336 24.2705 0
      vertex -9.27051 28.5317 0
    endloop
  endfacet
  facet normal 0.707107 -0.707107 0
    outer loop
      vertex -24.2705 17.6336 20
      vertex -17.6336 24.2705 0
      vertex -17.6336 24.2705 20
    endloop
  endfacet
  facet normal 0.707107 -0.707107 0
    outer loop
      vertex -17.6336 24.2705 0
      vertex -24.2705 17.6336 20
      vertex -24.2705 17.6336 0
    endloop
  endfacet
  facet normal 0.156434 -0.987688 0
    outer loop
      vertex -9.27051 28.5317 0
      vertex 0 30 20
      vertex -9.27051 28.5317 20
    endloop
  endfacet
  facet normal 0.156434 -0.987688 0
    outer loop
      vertex 0 30 20
      vertex -9.27051 28.5317 0
      vertex 0 30 0
    endloop
  endfacet
  facet normal -0.891006 0.453991 0
    outer loop
      vertex 24.2705 -17.6336 0
      vertex 28.5317 -9.27051 20
      vertex 28.5317 -9.27051 0
    endloop
  endfacet
  facet normal -0.891006 0.453991 0
    outer loop
      vertex 28.5317 -9.27051 20
      vertex 24.2705 -17.6336 0
      vertex 24.2705 -17.6336 20
    endloop
  endfacet
  facet normal 0.707107 0.707107 0
    outer loop
      vertex -17.6336 -24.2705 20
      vertex -24.2705 -17.6336 0
      vertex -24.2705 -17.6336 20
    endloop
  endfacet
  facet normal 0.707107 0.707107 0
    outer loop
      vertex -24.2705 -17.6336 0
      vertex -17.6336 -24.2705 20
      vertex -17.6336 -24.2705 0
    endloop
  endfacet
  facet normal 0.987688 0.156434 0
    outer loop
      vertex -28.5317 -9.27051 20
      vertex -30 0 0
      vertex -30 0 20
    endloop
  endfacet
  facet normal 0.987688 0.156434 0
    outer loop
      vertex -30 0 0
      vertex -28.5317 -9.27051 20
      vertex -28.5317 -9.27051 0
    endloop
  endfacet
  facet normal 0.891006 -0.453991 0
    outer loop
      vertex -28.5317 9.27051 20
      vertex -24.2705 17.6336 0
      vertex -24.2705 17.6336 20
    endloop
  endfacet
  facet normal 0.891006 -0.453991 0
    outer loop
      vertex -24.2705 17.6336 0
      vertex -28.5317 9.27051 20
      vertex -28.5317 9.27051 0
    endloop
  endfacet
  facet normal -0.156434 0.987688 0
    outer loop
      vertex 9.27051 -28.5317 0
      vertex 0 -30 20
      vertex 9.27051 -28.5317 20
    endloop
  endfacet
  facet normal -0.156434 0.987688 0
    outer loop
      vertex 0 -30 20
      vertex 9.27051 -28.5317 0
      vertex 0 -30 0
    endloop
  endfacet
  facet normal -0.707107 0.707107 0
    outer loop
      vertex 17.6336 -24.2705 0
      vertex 24.2705 -17.6336 20
      vertex 24.2705 -17.6336 0
    endloop
  endfacet
  facet normal -0.707107 0.707107 0
    outer loop
      vertex 24.2705 -17.6336 20
      vertex 17.6336 -24.2705 0
      vertex 17.6336 -24.2705 20
    endloop
  endfacet
  facet normal 0.453991 0.891006 -0
    outer loop
      vertex -9.27051 -28.5317 0
      vertex -17.6336 -24.2705 20
      vertex -9.27051 -28.5317 20
    endloop
  endfacet
  facet normal 0.453991 0.891006 0
    outer loop
      vertex -17.6336 -24.2705 20
      vertex -9.27051 -28.5317 0
      vertex -17.6336 -24.2705 0
    endloop
  endfacet
  facet normal 0.891006 0.453991 0
    outer loop
      vertex -24.2705 -17.6336 20
      vertex -28.5317 -9.27051 0
      vertex -28.5317 -9.27051 20
    endloop
  endfacet
  facet normal 0.891006 0.453991 0
    outer loop
      vertex -28.5317 -9.27051 0
      vertex -24.2705 -17.6336 20
      vertex -24.2705 -17.6336 0
    endloop
  endfacet
  facet normal -0.987688 0.156434 0
    outer loop
      vertex 28.5317 -9.27051 0
      vertex 30 0 20
      vertex 30 0 0
    endloop
  endfacet
  facet normal -0.987688 0.156434 0
    outer loop
      vertex 30 0 20
      vertex 28.5317 -9.27051 0
      vertex 28.5317 -9.27051 20
    endloop
  endfacet
  facet normal -0.453991 0.891006 0
    outer loop
      vertex 17.6336 -24.2705 0
      vertex 9.27051 -28.5317 20
      vertex 17.6336 -24.2705 20
    endloop
  endfacet
  facet normal -0.453991 0.891006 0
    outer loop
      vertex 9.27051 -28.5317 20
      vertex 17.6336 -24.2705 0
      vertex 9.27051 -28.5317 0
    endloop
  endfacet
  facet normal 0.987688 0.156434 0
    outer loop
      vertex 60 0 40
      vertex 57.0634 18.541 20
      vertex 57.0634 18.541 40
    endloop
  endfacet
  facet normal 0.987688 0.156434 0
    outer loop
      vertex 57.0634 18.541 20
      vertex 60 0 40
      vertex 60 0 20
    endloop
  endfacet
  facet normal -0.987688 0.156434 0
    outer loop
      vertex -60 0 20
      vertex -57.0634 18.541 40
      vertex -57.0634 18.541 20
    endloop
  endfacet
  facet normal -0.987688 0.156434 0
    outer loop
      vertex -57.0634 18.541 40
      vertex -60 0 20
      vertex -60 0 40
    endloop
  endfacet
  facet normal 0.156434 0.987688 -0
    outer loop
      vertex 18.541 57.0634 20
      vertex 0 60 40
      vertex 18.541 57.0634 40
    endloop
  endfacet
  facet normal 0.156434 0.987688 0
    outer loop
      vertex 0 60 40
      vertex 18.541 57.0634 20
      vertex 0 60 20
    endloop
  endfacet
  facet normal -0.156434 -0.987688 0
    outer loop
      vertex -18.541 -57.0634 20
      vertex 0 -60 40
      vertex -18.541 -57.0634 40
    endloop
  endfacet
  facet normal -0.156434 -0.987688 -0
    outer loop
      vertex 0 -60 40
      vertex -18.541 -57.0634 20
      vertex 0 -60 20
    endloop
  endfacet
  facet normal 0.707107 0.707107 0
    outer loop
      vertex 48.541 35.2671 40
      vertex 35.2671 48.541 20
      vertex 35.2671 48.541 40
    endloop
  endfacet
  facet normal 0.707107 0.707107 0
    outer loop
      vertex 35.2671 48.541 20
      vertex 48.541 35.2671 40
      vertex 48.541 35.2671 20
    endloop
  endfacet
  facet normal 0.891006 0.453991 0
    outer loop
      vertex 57.0634 18.541 40
      vertex 48.541 35.2671 20
      vertex 48.541 35.2671 40
    endloop
  endfacet
  facet normal 0.891006 0.453991 0
    outer loop
      vertex 48.541 35.2671 20
      vertex 57.0634 18.541 40
      vertex 57.0634 18.541 20
    endloop
  endfacet
  facet normal 0.453991 0.891006 -0
    outer loop
      vertex 35.2671 48.541 20
      vertex 18.541 57.0634 40
      vertex 35.2671 48.541 40
    endloop
  endfacet
  facet normal 0.453991 0.891006 0
    outer loop
      vertex 18.541 57.0634 40
      vertex 35.2671 48.541 20
      vertex 18.541 57.0634 20
    endloop
  endfacet
  facet normal -0.453991 0.891006 0
    outer loop
      vertex -18.541 57.0634 20
      vertex -35.2671 48.541 40
      vertex -18.541 57.0634 40
    endloop
  endfacet
  facet normal -0.453991 0.891006 0
    outer loop
      vertex -35.2671 48.541 40
      vertex -18.541 57.0634 20
      vertex -35.2671 48.541 20
    endloop
  endfacet
  facet normal -0.707107 0.707107 0
    outer loop
      vertex -48.541 35.2671 20
      vertex -35.2671 48.541 40
      vertex -35.2671 48.541 20
    endloop
  endfacet
  facet normal -0.707107 0.707107 0
    outer loop
      vertex -35.2671 48.541 40
      vertex -48.541 35.2671 20
      vertex -48.541 35.2671 40
    endloop
  endfacet
  facet normal -0.156434 0.987688 0
    outer loop
      vertex 0 60 20
      vertex -18.541 57.0634 40
      vertex 0 60 40
    endloop
  endfacet
  facet normal -0.156434 0.987688 0
    outer loop
      vertex -18.541 57.0634 40
      vertex 0 60 20
      vertex -18.541 57.0634 20
    endloop
  endfacet
  facet normal 0.891006 -0.453991 0
    outer loop
      vertex 48.541 -35.2671 40
      vertex 57.0634 -18.541 20
      vertex 57.0634 -18.541 40
    endloop
  endfacet
  facet normal 0.891006 -0.453991 0
    outer loop
      vertex 57.0634 -18.541 20
      vertex 48.541 -35.2671 40
      vertex 48.541 -35.2671 20
    endloop
  endfacet
  facet normal -0.707107 -0.707107 0
    outer loop
      vertex -35.2671 -48.541 20
      vertex -48.541 -35.2671 40
      vertex -48.541 -35.2671 20
    endloop
  endfacet
  facet normal -0.707107 -0.707107 0
    outer loop
      vertex -48.541 -35.2671 40
      vertex -35.2671 -48.541 20
      vertex -35.2671 -48.541 40
    endloop
  endfacet
  facet normal -0.987688 -0.156434 0
    outer loop
      vertex -57.0634 -18.541 20
      vertex -60 0 40
      vertex -60 0 20
    endloop
  endfacet
  facet normal -0.987688 -0.156434 0
    outer loop
      vertex -60 0 40
      vertex -57.0634 -18.541 20
      vertex -57.0634 -18.541 40
    endloop
  endfacet
  facet normal -0.891006 0.453991 0
    outer loop
      vertex -57.0634 18.541 20
      vertex -48.541 35.2671 40
      vertex -48.541 35.2671 20
    endloop
  endfacet
  facet normal -0.891006 0.453991 0
    outer loop
      vertex -48.541 35.2671 40
      vertex -57.0634 18.541 20
      vertex -57.0634 18.541 40
    endloop
  endfacet
  facet normal 0 0 1
    outer loop
      vertex 55 0 40
      vertex 60 0 40
      vertex 57.0634 18.541 40
    endloop
  endfacet
  facet normal 0 0 1
    outer loop
      vertex 60 0 40
      vertex 55 0 40
      vertex 57.0634 -18.541 40
    endloop
  endfacet
  facet normal 0 0 1
    outer loop
      vertex 57.0634 18.541 40
      vertex 52.3081 16.9959 40
      vertex 55 0 40
    endloop
  endfacet
  facet normal 0 0 1
    outer loop
      vertex 48.541 35.2671 40
      vertex 52.3081 16.9959 40
      vertex 57.0634 18.541 40
    endloop
  endfacet
  facet normal 0 0 1
    outer loop
      vertex 48.541 35.2671 40
      vertex 44.4959 32.3282 40
      vertex 52.3081 16.9959 40
    endloop
  endfacet
  facet normal 0 0 1
    outer loop
      vertex 35.2671 48.541 40
      vertex 44.4959 32.3282 40
      vertex 48.541 35.2671 40
    endloop
  endfacet
  facet normal 0 0 1
    outer loop
      vertex 35.2671 48.541 40
      vertex 32.3282 44.4959 40
      vertex 44.4959 32.3282 40
    endloop
  endfacet
  facet normal 0 0 1
    outer loop
      vertex 18.541 57.0634 40
      vertex 32.3282 44.4959 40
      vertex 35.2671 48.541 40
    endloop
  endfacet
  facet normal 0 0 1
    outer loop
      vertex 18.541 57.0634 40
      vertex 16.9959 52.3081 40
      vertex 32.3282 44.4959 40
    endloop
  endfacet
  facet normal 0 0 1
    outer loop
      vertex 0 60 40
      vertex 16.9959 52.3081 40
      vertex 18.541 57.0634 40
    endloop
  endfacet
  facet normal 0 0 1
    outer loop
      vertex 0 60 40
      vertex 0 55 40
      vertex 16.9959 52.3081 40
    endloop
  endfacet
  facet normal 0 0 1
    outer loop
      vertex 0 60 40
      vertex -16.9959 52.3081 40
      vertex 0 55 40
    endloop
  endfacet
  facet normal -0 0 1
    outer loop
      vertex -18.541 57.0634 40
      vertex -16.9959 52.3081 40
      vertex 0 60 40
    endloop
  endfacet
  facet normal 0 0 1
    outer loop
      vertex -18.541 57.0634 40
      vertex -32.3282 44.4959 40
      vertex -16.9959 52.3081 40
    endloop
  endfacet
  facet normal -0 0 1
    outer loop
      vertex -35.2671 48.541 40
      vertex -32.3282 44.4959 40
      vertex -18.541 57.0634 40
    endloop
  endfacet
  facet normal 0 0 1
    outer loop
      vertex -35.2671 48.541 40
      vertex -44.4959 32.3282 40
      vertex -32.3282 44.4959 40
    endloop
  endfacet
  facet normal -0 0 1
    outer loop
      vertex -48.541 35.2671 40
      vertex -44.4959 32.3282 40
      vertex -35.2671 48.541 40
    endloop
  endfacet
  facet normal 0 0 1
    outer loop
      vertex -48.541 35.2671 40
      vertex -52.3081 16.9959 40
      vertex -44.4959 32.3282 40
    endloop
  endfacet
  facet normal 0 0 1
    outer loop
      vertex -52.3081 16.9959 40
      vertex -57.0634 18.541 40
      vertex -55 0 40
    endloop
  endfacet
  facet normal -0 0 1
    outer loop
      vertex -57.0634 18.541 40
      vertex -52.3081 16.9959 40
      vertex -48.541 35.2671 40
    endloop
  endfacet
  facet normal -0 0 1
    outer loop
      vertex 52.3081 -16.9959 40
      vertex 57.0634 -18.541 40
      vertex 55 0 40
    endloop
  endfacet
  facet normal 0 0 1
    outer loop
      vertex 52.3081 -16.9959 40
      vertex 48.541 -35.2671 40
      vertex 57.0634 -18.541 40
    endloop
  endfacet
  facet normal -0 0 1
    outer loop
      vertex 44.4959 -32.3282 40
      vertex 48.541 -35.2671 40
      vertex 52.3081 -16.9959 40
    endloop
  endfacet
  facet normal 0 0 1
    outer loop
      vertex 44.4959 -32.3282 40
      vertex 35.2671 -48.541 40
      vertex 48.541 -35.2671 40
    endloop
  endfacet
  facet normal -0 0 1
    outer loop
      vertex 32.3282 -44.4959 40
      vertex 35.2671 -48.541 40
      vertex 44.4959 -32.3282 40
    endloop
  endfacet
  facet normal 0 0 1
    outer loop
      vertex 32.3282 -44.4959 40
      vertex 18.541 -57.0634 40
      vertex 35.2671 -48.541 40
    endloop
  endfacet
  facet normal -0 0 1
    outer loop
      vertex 16.9959 -52.3081 40
      vertex 18.541 -57.0634 40
      vertex 32.3282 -44.4959 40
    endloop
  endfacet
  facet normal -0 0 1
    outer loop
      vertex 0 -55 40
      vertex 18.541 -57.0634 40
      vertex 16.9959 -52.3081 40
    endloop
  endfacet
  facet normal 0 0 1
    outer loop
      vertex 0 -55 40
      vertex 0 -60 40
      vertex 18.541 -57.0634 40
    endloop
  endfacet
  facet normal 0 0 1
    outer loop
      vertex -16.9959 -52.3081 40
      vertex 0 -60 40
      vertex 0 -55 40
    endloop
  endfacet
  facet normal 0 0 1
    outer loop
      vertex -16.9959 -52.3081 40
      vertex -18.541 -57.0634 40
      vertex 0 -60 40
    endloop
  endfacet
  facet normal 0 0 1
    outer loop
      vertex -32.3282 -44.4959 40
      vertex -18.541 -57.0634 40
      vertex -16.9959 -52.3081 40
    endloop
  endfacet
  facet normal 0 0 1
    outer loop
      vertex -32.3282 -44.4959 40
      vertex -35.2671 -48.541 40
      vertex -18.541 -57.0634 40
    endloop
  endfacet
  facet normal 0 0 1
    outer loop
      vertex -44.4959 -32.3282 40
      vertex -35.2671 -48.541 40
      vertex -32.3282 -44.4959 40
    endloop
  endfacet
  facet normal 0 0 1
    outer loop
      vertex -44.4959 -32.3282 40
      vertex -48.541 -35.2671 40
      vertex -35.2671 -48.541 40
    endloop
  endfacet
  facet normal 0 0 1
    outer loop
      vertex -52.3081 -16.9959 40
      vertex -48.541 -35.2671 40
      vertex -44.4959 -32.3282 40
    endloop
  endfacet
  facet normal 0 0 1
    outer loop
      vertex -52.3081 -16.9959 40
      vertex -57.0634 -18.541 40
      vertex -48.541 -35.2671 40
    endloop
  endfacet
  facet normal 0 0 1
    outer loop
      vertex -55 0 40
      vertex -57.0634 -18.541 40
      vertex -52.3081 -16.9959 40
    endloop
  endfacet
  facet normal 0 0 1
    outer loop
      vertex -60 0 40
      vertex -55 0 40
      vertex -57.0634 18.541 40
    endloop
  endfacet
  facet normal 0 0 1
    outer loop
      vertex -55 0 40
      vertex -60 0 40
      vertex -57.0634 -18.541 40
    endloop
  endfacet
  facet normal 0 0 1
    outer loop
      vertex 40 0 40
      vertex 45 0 40
      vertex 42.7975 13.9058 40
    endloop
  endfacet
  facet normal 0 0 1
    outer loop
      vertex 45 0 40
      vertex 40 0 40
      vertex 42.7975 -13.9058 40
    endloop
  endfacet
  facet normal 0 0 1
    outer loop
      vertex 42.7975 13.9058 40
      vertex 38.0423 12.3607 40
      vertex 40 0 40
    endloop
  endfacet
  facet normal 0 0 1
    outer loop
      vertex 36.4058 26.4503 40
      vertex 38.0423 12.3607 40
      vertex 42.7975 13.9058 40
    endloop
  endfacet
  facet normal 0 0 1
    outer loop
      vertex 36.4058 26.4503 40
      vertex 32.3607 23.5114 40
      vertex 38.0423 12.3607 40
    endloop
  endfacet
  facet normal 0 0 1
    outer loop
      vertex 26.4503 36.4058 40
      vertex 32.3607 23.5114 40
      vertex 36.4058 26.4503 40
    endloop
  endfacet
  facet normal 0 0 1
    outer loop
      vertex 26.4503 36.4058 40
      vertex 23.5114 32.3607 40
      vertex 32.3607 23.5114 40
    endloop
  endfacet
  facet normal 0 0 1
    outer loop
      vertex 13.9058 42.7975 40
      vertex 23.5114 32.3607 40
      vertex 26.4503 36.4058 40
    endloop
  endfacet
  facet normal 0 0 1
    outer loop
      vertex 13.9058 42.7975 40
      vertex 12.3607 38.0423 40
      vertex 23.5114 32.3607 40
    endloop
  endfacet
  facet normal 0 0 1
    outer loop
      vertex 0 45 40
      vertex 12.3607 38.0423 40
      vertex 13.9058 42.7975 40
    endloop
  endfacet
  facet normal 0 0 1
    outer loop
      vertex 0 45 40
      vertex 0 40 40
      vertex 12.3607 38.0423 40
    endloop
  endfacet
  facet normal 0 0 1
    outer loop
      vertex 0 45 40
      vertex -12.3607 38.0423 40
      vertex 0 40 40
    endloop
  endfacet
  facet normal -0 0 1
    outer loop
      vertex -13.9058 42.7975 40
      vertex -12.3607 38.0423 40
      vertex 0 45 40
    endloop
  endfacet
  facet normal 0 0 1
    outer loop
      vertex -13.9058 42.7975 40
      vertex -23.5114 32.3607 40
      vertex -12.3607 38.0423 40
    endloop
  endfacet
  facet normal -0 0 1
    outer loop
      vertex -26.4503 36.4058 40
      vertex -23.5114 32.3607 40
      vertex -13.9058 42.7975 40
    endloop
  endfacet
  facet normal 0 0 1
    outer loop
      vertex -26.4503 36.4058 40
      vertex -32.3607 23.5114 40
      vertex -23.5114 32.3607 40
    endloop
  endfacet
  facet normal -0 0 1
    outer loop
      vertex -36.4058 26.4503 40
      vertex -32.3607 23.5114 40
      vertex -26.4503 36.4058 40
    endloop
  endfacet
  facet normal 0 0 1
    outer loop
      vertex -36.4058 26.4503 40
      vertex -38.0423 12.3607 40
      vertex -32.3607 23.5114 40
    endloop
  endfacet
  facet normal -0 0 1
    outer loop
      vertex -42.7975 13.9058 40
      vertex -38.0423 12.3607 40
      vertex -36.4058 26.4503 40
    endloop
  endfacet
  facet normal 0 0 1
    outer loop
      vertex -38.0423 12.3607 40
      vertex -42.7975 13.9058 40
      vertex -40 0 40
    endloop
  endfacet
  facet normal -0 0 1
    outer loop
      vertex 38.0423 -12.3607 40
      vertex 42.7975 -13.9058 40
      vertex 40 0 40
    endloop
  endfacet
  facet normal 0 0 1
    outer loop
      vertex 38.0423 -12.3607 40
      vertex 36.4058 -26.4503 40
      vertex 42.7975 -13.9058 40
    endloop
  endfacet
  facet normal -0 0 1
    outer loop
      vertex 32.3607 -23.5114 40
      vertex 36.4058 -26.4503 40
      vertex 38.0423 -12.3607 40
    endloop
  endfacet
  facet normal 0 0 1
    outer loop
      vertex 32.3607 -23.5114 40
      vertex 26.4503 -36.4058 40
      vertex 36.4058 -26.4503 40
    endloop
  endfacet
  facet normal -0 0 1
    outer loop
      vertex 23.5114 -32.3607 40
      vertex 26.4503 -36.4058 40
      vertex 32.3607 -23.5114 40
    endloop
  endfacet
  facet normal 0 0 1
    outer loop
      vertex 23.5114 -32.3607 40
      vertex 13.9058 -42.7975 40
      vertex 26.4503 -36.4058 40
    endloop
  endfacet
  facet normal -0 0 1
    outer loop
      vertex 12.3607 -38.0423 40
      vertex 13.9058 -42.7975 40
      vertex 23.5114 -32.3607 40
    endloop
  endfacet
  facet normal -0 0 1
    outer loop
      vertex 0 -40 40
      vertex 13.9058 -42.7975 40
      vertex 12.3607 -38.0423 40
    endloop
  endfacet
  facet normal 0 0 1
    outer loop
      vertex 0 -40 40
      vertex 0 -45 40
      vertex 13.9058 -42.7975 40
    endloop
  endfacet
  facet normal 0 0 1
    outer loop
      vertex -12.3607 -38.0423 40
      vertex 0 -45 40
      vertex 0 -40 40
    endloop
  endfacet
  facet normal 0 0 1
    outer loop
      vertex -12.3607 -38.0423 40
      vertex -13.9058 -42.7975 40
      vertex 0 -45 40
    endloop
  endfacet
  facet normal 0 0 1
    outer loop
      vertex -23.5114 -32.3607 40
      vertex -13.9058 -42.7975 40
      vertex -12.3607 -38.0423 40
    endloop
  endfacet
  facet normal 0 0 1
    outer loop
      vertex -23.5114 -32.3607 40
      vertex -26.4503 -36.4058 40
      vertex -13.9058 -42.7975 40
    endloop
  endfacet
  facet normal 0 0 1
    outer loop
      vertex -32.3607 -23.5114 40
      vertex -26.4503 -36.4058 40
      vertex -23.5114 -32.3607 40
    endloop
  endfacet
  facet normal 0 0 1
    outer loop
      vertex -32.3607 -23.5114 40
      vertex -36.4058 -26.4503 40
      vertex -26.4503 -36.4058 40
    endloop
  endfacet
  facet normal 0 0 1
    outer loop
      vertex -38.0423 -12.3607 40
      vertex -36.4058 -26.4503 40
      vertex -32.3607 -23.5114 40
    endloop
  endfacet
  facet normal 0 0 1
    outer loop
      vertex -42.7975 -13.9058 40
      vertex -38.0423 -12.3607 40
      vertex -40 0 40
    endloop
  endfacet
  facet normal 0 0 1
    outer loop
      vertex -45 0 40
      vertex -40 0 40
      vertex -42.7975 13.9058 40
    endloop
  endfacet
  facet normal 0 0 1
    outer loop
      vertex -38.0423 -12.3607 40
      vertex -42.7975 -13.9058 40
      vertex -36.4058 -26.4503 40
    endloop
  endfacet
  facet normal 0 0 1
    outer loop
      vertex -40 0 40
      vertex -45 0 40
      vertex -42.7975 -13.9058 40
    endloop
  endfacet
  facet normal 0.987688 -0.156434 0
    outer loop
      vertex 57.0634 -18.541 40
      vertex 60 0 20
      vertex 60 0 40
    endloop
  endfacet
  facet normal 0.987688 -0.156434 0
    outer loop
      vertex 60 0 20
      vertex 57.0634 -18.541 40
      vertex 57.0634 -18.541 20
    endloop
  endfacet
  facet normal 0.156434 -0.987688 0
    outer loop
      vertex 0 -60 20
      vertex 18.541 -57.0634 40
      vertex 0 -60 40
    endloop
  endfacet
  facet normal 0.156434 -0.987688 0
    outer loop
      vertex 18.541 -57.0634 40
      vertex 0 -60 20
      vertex 18.541 -57.0634 20
    endloop
  endfacet
  facet normal 0.707107 -0.707107 0
    outer loop
      vertex 35.2671 -48.541 40
      vertex 48.541 -35.2671 20
      vertex 48.541 -35.2671 40
    endloop
  endfacet
  facet normal 0.707107 -0.707107 0
    outer loop
      vertex 48.541 -35.2671 20
      vertex 35.2671 -48.541 40
      vertex 35.2671 -48.541 20
    endloop
  endfacet
  facet normal -0.453991 -0.891006 0
    outer loop
      vertex -35.2671 -48.541 20
      vertex -18.541 -57.0634 40
      vertex -35.2671 -48.541 40
    endloop
  endfacet
  facet normal -0.453991 -0.891006 -0
    outer loop
      vertex -18.541 -57.0634 40
      vertex -35.2671 -48.541 20
      vertex -18.541 -57.0634 20
    endloop
  endfacet
  facet normal -0.891006 -0.453991 0
    outer loop
      vertex -48.541 -35.2671 20
      vertex -57.0634 -18.541 40
      vertex -57.0634 -18.541 20
    endloop
  endfacet
  facet normal -0.891006 -0.453991 0
    outer loop
      vertex -57.0634 -18.541 40
      vertex -48.541 -35.2671 20
      vertex -48.541 -35.2671 40
    endloop
  endfacet
  facet normal 0.453991 -0.891006 0
    outer loop
      vertex 18.541 -57.0634 20
      vertex 35.2671 -48.541 40
      vertex 18.541 -57.0634 40
    endloop
  endfacet
  facet normal 0.453991 -0.891006 0
    outer loop
      vertex 35.2671 -48.541 40
      vertex 18.541 -57.0634 20
      vertex 35.2671 -48.541 20
    endloop
  endfacet
  facet normal -0.987688 -0.156435 0
    outer loop
      vertex 40 0 20
      vertex 38.0423 12.3607 40
      vertex 38.0423 12.3607 20
    endloop
  endfacet
  facet normal -0.987688 -0.156435 0
    outer loop
      vertex 38.0423 12.3607 40
      vertex 40 0 20
      vertex 40 0 40
    endloop
  endfacet
  facet normal 0.987688 -0.156435 0
    outer loop
      vertex -40 0 40
      vertex -38.0423 12.3607 20
      vertex -38.0423 12.3607 40
    endloop
  endfacet
  facet normal 0.987688 -0.156435 0
    outer loop
      vertex -38.0423 12.3607 20
      vertex -40 0 40
      vertex -40 0 20
    endloop
  endfacet
  facet normal -0.156435 -0.987688 0
    outer loop
      vertex 0 40 20
      vertex 12.3607 38.0423 40
      vertex 0 40 40
    endloop
  endfacet
  facet normal -0.156435 -0.987688 -0
    outer loop
      vertex 12.3607 38.0423 40
      vertex 0 40 20
      vertex 12.3607 38.0423 20
    endloop
  endfacet
  facet normal 0.156435 0.987688 -0
    outer loop
      vertex 0 -40 20
      vertex -12.3607 -38.0423 40
      vertex 0 -40 40
    endloop
  endfacet
  facet normal 0.156435 0.987688 0
    outer loop
      vertex -12.3607 -38.0423 40
      vertex 0 -40 20
      vertex -12.3607 -38.0423 20
    endloop
  endfacet
  facet normal -0.707107 -0.707107 0
    outer loop
      vertex 32.3607 23.5114 20
      vertex 23.5114 32.3607 40
      vertex 23.5114 32.3607 20
    endloop
  endfacet
  facet normal -0.707107 -0.707107 0
    outer loop
      vertex 23.5114 32.3607 40
      vertex 32.3607 23.5114 20
      vertex 32.3607 23.5114 40
    endloop
  endfacet
  facet normal -0.891007 -0.45399 0
    outer loop
      vertex 38.0423 12.3607 20
      vertex 32.3607 23.5114 40
      vertex 32.3607 23.5114 20
    endloop
  endfacet
  facet normal -0.891007 -0.45399 0
    outer loop
      vertex 32.3607 23.5114 40
      vertex 38.0423 12.3607 20
      vertex 38.0423 12.3607 40
    endloop
  endfacet
  facet normal -0.45399 -0.891007 0
    outer loop
      vertex 12.3607 38.0423 20
      vertex 23.5114 32.3607 40
      vertex 12.3607 38.0423 40
    endloop
  endfacet
  facet normal -0.45399 -0.891007 -0
    outer loop
      vertex 23.5114 32.3607 40
      vertex 12.3607 38.0423 20
      vertex 23.5114 32.3607 20
    endloop
  endfacet
  facet normal 0.45399 -0.891007 0
    outer loop
      vertex -23.5114 32.3607 20
      vertex -12.3607 38.0423 40
      vertex -23.5114 32.3607 40
    endloop
  endfacet
  facet normal 0.45399 -0.891007 0
    outer loop
      vertex -12.3607 38.0423 40
      vertex -23.5114 32.3607 20
      vertex -12.3607 38.0423 20
    endloop
  endfacet
  facet normal 0.707107 -0.707107 0
    outer loop
      vertex -32.3607 23.5114 40
      vertex -23.5114 32.3607 20
      vertex -23.5114 32.3607 40
    endloop
  endfacet
  facet normal 0.707107 -0.707107 0
    outer loop
      vertex -23.5114 32.3607 20
      vertex -32.3607 23.5114 40
      vertex -32.3607 23.5114 20
    endloop
  endfacet
  facet normal 0.156435 -0.987688 0
    outer loop
      vertex -12.3607 38.0423 20
      vertex 0 40 40
      vertex -12.3607 38.0423 40
    endloop
  endfacet
  facet normal 0.156435 -0.987688 0
    outer loop
      vertex 0 40 40
      vertex -12.3607 38.0423 20
      vertex 0 40 20
    endloop
  endfacet
  facet normal -0.891007 0.45399 0
    outer loop
      vertex 32.3607 -23.5114 20
      vertex 38.0423 -12.3607 40
      vertex 38.0423 -12.3607 20
    endloop
  endfacet
  facet normal -0.891007 0.45399 0
    outer loop
      vertex 38.0423 -12.3607 40
      vertex 32.3607 -23.5114 20
      vertex 32.3607 -23.5114 40
    endloop
  endfacet
  facet normal 0.707107 0.707107 0
    outer loop
      vertex -23.5114 -32.3607 40
      vertex -32.3607 -23.5114 20
      vertex -32.3607 -23.5114 40
    endloop
  endfacet
  facet normal 0.707107 0.707107 0
    outer loop
      vertex -32.3607 -23.5114 20
      vertex -23.5114 -32.3607 40
      vertex -23.5114 -32.3607 20
    endloop
  endfacet
  facet normal 0.987688 0.156435 0
    outer loop
      vertex -38.0423 -12.3607 40
      vertex -40 0 20
      vertex -40 0 40
    endloop
  endfacet
  facet normal 0.987688 0.156435 0
    outer loop
      vertex -40 0 20
      vertex -38.0423 -12.3607 40
      vertex -38.0423 -12.3607 20
    endloop
  endfacet
  facet normal 0.891007 -0.45399 0
    outer loop
      vertex -38.0423 12.3607 40
      vertex -32.3607 23.5114 20
      vertex -32.3607 23.5114 40
    endloop
  endfacet
  facet normal 0.891007 -0.45399 0
    outer loop
      vertex -32.3607 23.5114 20
      vertex -38.0423 12.3607 40
      vertex -38.0423 12.3607 20
    endloop
  endfacet
  facet normal -0.987688 0.156435 0
    outer loop
      vertex 38.0423 -12.3607 20
      vertex 40 0 40
      vertex 40 0 20
    endloop
  endfacet
  facet normal -0.987688 0.156435 0
    outer loop
      vertex 40 0 40
      vertex 38.0423 -12.3607 20
      vertex 38.0423 -12.3607 40
    endloop
  endfacet
  facet normal -0.156435 0.987688 0
    outer loop
      vertex 12.3607 -38.0423 20
      vertex 0 -40 40
      vertex 12.3607 -38.0423 40
    endloop
  endfacet
  facet normal -0.156435 0.987688 0
    outer loop
      vertex 0 -40 40
      vertex 12.3607 -38.0423 20
      vertex 0 -40 20
    endloop
  endfacet
  facet normal -0.707107 0.707107 0
    outer loop
      vertex 23.5114 -32.3607 20
      vertex 32.3607 -23.5114 40
      vertex 32.3607 -23.5114 20
    endloop
  endfacet
  facet normal -0.707107 0.707107 0
    outer loop
      vertex 32.3607 -23.5114 40
      vertex 23.5114 -32.3607 20
      vertex 23.5114 -32.3607 40
    endloop
  endfacet
  facet normal 0.45399 0.891007 -0
    outer loop
      vertex -12.3607 -38.0423 20
      vertex -23.5114 -32.3607 40
      vertex -12.3607 -38.0423 40
    endloop
  endfacet
  facet normal 0.45399 0.891007 0
    outer loop
      vertex -23.5114 -32.3607 40
      vertex -12.3607 -38.0423 20
      vertex -23.5114 -32.3607 20
    endloop
  endfacet
  facet normal 0.891007 0.45399 0
    outer loop
      vertex -32.3607 -23.5114 40
      vertex -38.0423 -12.3607 20
      vertex -38.0423 -12.3607 40
    endloop
  endfacet
  facet normal 0.891007 0.45399 0
    outer loop
      vertex -38.0423 -12.3607 20
      vertex -32.3607 -23.5114 40
      vertex -32.3607 -23.5114 20
    endloop
  endfacet
  facet normal -0.45399 0.891007 0
    outer loop
      vertex 23.5114 -32.3607 20
      vertex 12.3607 -38.0423 40
      vertex 23.5114 -32.3607 40
    endloop
  endfacet
  facet normal -0.45399 0.891007 0
    outer loop
      vertex 12.3607 -38.0423 40
      vertex 23.5114 -32.3607 20
      vertex 12.3607 -38.0423 20
    endloop
  endfacet
  facet normal 0.987688 0.156434 0
    outer loop
      vertex 55 0 60
      vertex 52.3081 16.9959 40
      vertex 52.3081 16.9959 60
    endloop
  endfacet
  facet normal 0.987688 0.156434 0
    outer loop
      vertex 52.3081 16.9959 40
      vertex 55 0 60
      vertex 55 0 40
    endloop
  endfacet
  facet normal -0.987688 0.156434 0
    outer loop
      vertex -55 0 40
      vertex -52.3081 16.9959 60
      vertex -52.3081 16.9959 40
    endloop
  endfacet
  facet normal -0.987688 0.156434 0
    outer loop
      vertex -52.3081 16.9959 60
      vertex -55 0 40
      vertex -55 0 60
    endloop
  endfacet
  facet normal 0.156434 0.987688 -0
    outer loop
      vertex 16.9959 52.3081 40
      vertex 0 55 60
      vertex 16.9959 52.3081 60
    endloop
  endfacet
  facet normal 0.156434 0.987688 0
    outer loop
      vertex 0 55 60
      vertex 16.9959 52.3081 40
      vertex 0 55 40
    endloop
  endfacet
  facet normal 0.156434 -0.987688 0
    outer loop
      vertex 0 -55 40
      vertex 16.9959 -52.3081 60
      vertex 0 -55 60
    endloop
  endfacet
  facet normal 0.156434 -0.987688 0
    outer loop
      vertex 16.9959 -52.3081 60
      vertex 0 -55 40
      vertex 16.9959 -52.3081 40
    endloop
  endfacet
  facet normal 0.707107 0.707107 0
    outer loop
      vertex 44.4959 32.3282 60
      vertex 32.3282 44.4959 40
      vertex 32.3282 44.4959 60
    endloop
  endfacet
  facet normal 0.707107 0.707107 0
    outer loop
      vertex 32.3282 44.4959 40
      vertex 44.4959 32.3282 60
      vertex 44.4959 32.3282 40
    endloop
  endfacet
  facet normal 0.891006 0.453991 0
    outer loop
      vertex 52.3081 16.9959 60
      vertex 44.4959 32.3282 40
      vertex 44.4959 32.3282 60
    endloop
  endfacet
  facet normal 0.891006 0.453991 0
    outer loop
      vertex 44.4959 32.3282 40
      vertex 52.3081 16.9959 60
      vertex 52.3081 16.9959 40
    endloop
  endfacet
  facet normal 0.453991 0.891006 -0
    outer loop
      vertex 32.3282 44.4959 40
      vertex 16.9959 52.3081 60
      vertex 32.3282 44.4959 60
    endloop
  endfacet
  facet normal 0.453991 0.891006 0
    outer loop
      vertex 16.9959 52.3081 60
      vertex 32.3282 44.4959 40
      vertex 16.9959 52.3081 40
    endloop
  endfacet
  facet normal -0.453991 0.891006 0
    outer loop
      vertex -16.9959 52.3081 40
      vertex -32.3282 44.4959 60
      vertex -16.9959 52.3081 60
    endloop
  endfacet
  facet normal -0.453991 0.891006 0
    outer loop
      vertex -32.3282 44.4959 60
      vertex -16.9959 52.3081 40
      vertex -32.3282 44.4959 40
    endloop
  endfacet
  facet normal 0 0 1
    outer loop
      vertex 45 0 60
      vertex 55 0 60
      vertex 52.3081 16.9959 60
    endloop
  endfacet
  facet normal 0 0 1
    outer loop
      vertex 55 0 60
      vertex 45 0 60
      vertex 52.3081 -16.9959 60
    endloop
  endfacet
  facet normal 0 0 1
    outer loop
      vertex 42.7975 13.9058 60
      vertex 52.3081 16.9959 60
      vertex 44.4959 32.3282 60
    endloop
  endfacet
  facet normal 0 0 1
    outer loop
      vertex 52.3081 16.9959 60
      vertex 42.7975 13.9058 60
      vertex 45 0 60
    endloop
  endfacet
  facet normal 0 0 1
    outer loop
      vertex 44.4959 32.3282 60
      vertex 36.4058 26.4503 60
      vertex 42.7975 13.9058 60
    endloop
  endfacet
  facet normal 0 0 1
    outer loop
      vertex 32.3282 44.4959 60
      vertex 36.4058 26.4503 60
      vertex 44.4959 32.3282 60
    endloop
  endfacet
  facet normal 0 0 1
    outer loop
      vertex 32.3282 44.4959 60
      vertex 26.4503 36.4058 60
      vertex 36.4058 26.4503 60
    endloop
  endfacet
  facet normal 0 0 1
    outer loop
      vertex 16.9959 52.3081 60
      vertex 26.4503 36.4058 60
      vertex 32.3282 44.4959 60
    endloop
  endfacet
  facet normal 0 0 1
    outer loop
      vertex 16.9959 52.3081 60
      vertex 13.9058 42.7975 60
      vertex 26.4503 36.4058 60
    endloop
  endfacet
  facet normal 0 0 1
    outer loop
      vertex 0 55 60
      vertex 13.9058 42.7975 60
      vertex 16.9959 52.3081 60
    endloop
  endfacet
  facet normal 0 0 1
    outer loop
      vertex 0 55 60
      vertex 0 45 60
      vertex 13.9058 42.7975 60
    endloop
  endfacet
  facet normal 0 0 1
    outer loop
      vertex 0 55 60
      vertex -13.9058 42.7975 60
      vertex 0 45 60
    endloop
  endfacet
  facet normal -0 0 1
    outer loop
      vertex -16.9959 52.3081 60
      vertex -13.9058 42.7975 60
      vertex 0 55 60
    endloop
  endfacet
  facet normal 0 0 1
    outer loop
      vertex -16.9959 52.3081 60
      vertex -26.4503 36.4058 60
      vertex -13.9058 42.7975 60
    endloop
  endfacet
  facet normal -0 0 1
    outer loop
      vertex -32.3282 44.4959 60
      vertex -26.4503 36.4058 60
      vertex -16.9959 52.3081 60
    endloop
  endfacet
  facet normal 0 0 1
    outer loop
      vertex -32.3282 44.4959 60
      vertex -36.4058 26.4503 60
      vertex -26.4503 36.4058 60
    endloop
  endfacet
  facet normal -0 0 1
    outer loop
      vertex -44.4959 32.3282 60
      vertex -36.4058 26.4503 60
      vertex -32.3282 44.4959 60
    endloop
  endfacet
  facet normal 0 0 1
    outer loop
      vertex -36.4058 26.4503 60
      vertex -44.4959 32.3282 60
      vertex -42.7975 13.9058 60
    endloop
  endfacet
  facet normal -0 0 1
    outer loop
      vertex -52.3081 16.9959 60
      vertex -42.7975 13.9058 60
      vertex -44.4959 32.3282 60
    endloop
  endfacet
  facet normal 0 0 1
    outer loop
      vertex -42.7975 13.9058 60
      vertex -52.3081 16.9959 60
      vertex -45 0 60
    endloop
  endfacet
  facet normal -0 0 1
    outer loop
      vertex 42.7975 -13.9058 60
      vertex 52.3081 -16.9959 60
      vertex 45 0 60
    endloop
  endfacet
  facet normal 0 0 1
    outer loop
      vertex 52.3081 -16.9959 60
      vertex 42.7975 -13.9058 60
      vertex 44.4959 -32.3282 60
    endloop
  endfacet
  facet normal -0 0 1
    outer loop
      vertex 36.4058 -26.4503 60
      vertex 44.4959 -32.3282 60
      vertex 42.7975 -13.9058 60
    endloop
  endfacet
  facet normal 0 0 1
    outer loop
      vertex 36.4058 -26.4503 60
      vertex 32.3282 -44.4959 60
      vertex 44.4959 -32.3282 60
    endloop
  endfacet
  facet normal -0 0 1
    outer loop
      vertex 26.4503 -36.4058 60
      vertex 32.3282 -44.4959 60
      vertex 36.4058 -26.4503 60
    endloop
  endfacet
  facet normal 0 0 1
    outer loop
      vertex 26.4503 -36.4058 60
      vertex 16.9959 -52.3081 60
      vertex 32.3282 -44.4959 60
    endloop
  endfacet
  facet normal -0 0 1
    outer loop
      vertex 13.9058 -42.7975 60
      vertex 16.9959 -52.3081 60
      vertex 26.4503 -36.4058 60
    endloop
  endfacet
  facet normal -0 0 1
    outer loop
      vertex 0 -45 60
      vertex 16.9959 -52.3081 60
      vertex 13.9058 -42.7975 60
    endloop
  endfacet
  facet normal 0 0 1
    outer loop
      vertex 0 -45 60
      vertex 0 -55 60
      vertex 16.9959 -52.3081 60
    endloop
  endfacet
  facet normal 0 0 1
    outer loop
      vertex -13.9058 -42.7975 60
      vertex 0 -55 60
      vertex 0 -45 60
    endloop
  endfacet
  facet normal 0 0 1
    outer loop
      vertex -13.9058 -42.7975 60
      vertex -16.9959 -52.3081 60
      vertex 0 -55 60
    endloop
  endfacet
  facet normal 0 0 1
    outer loop
      vertex -26.4503 -36.4058 60
      vertex -16.9959 -52.3081 60
      vertex -13.9058 -42.7975 60
    endloop
  endfacet
  facet normal 0 0 1
    outer loop
      vertex -26.4503 -36.4058 60
      vertex -32.3282 -44.4959 60
      vertex -16.9959 -52.3081 60
    endloop
  endfacet
  facet normal 0 0 1
    outer loop
      vertex -36.4058 -26.4503 60
      vertex -32.3282 -44.4959 60
      vertex -26.4503 -36.4058 60
    endloop
  endfacet
  facet normal 0 0 1
    outer loop
      vertex -44.4959 -32.3282 60
      vertex -36.4058 -26.4503 60
      vertex -42.7975 -13.9058 60
    endloop
  endfacet
  facet normal 0 0 1
    outer loop
      vertex -36.4058 -26.4503 60
      vertex -44.4959 -32.3282 60
      vertex -32.3282 -44.4959 60
    endloop
  endfacet
  facet normal 0 0 1
    outer loop
      vertex -52.3081 -16.9959 60
      vertex -42.7975 -13.9058 60
      vertex -45 0 60
    endloop
  endfacet
  facet normal 0 0 1
    outer loop
      vertex -55 0 60
      vertex -45 0 60
      vertex -52.3081 16.9959 60
    endloop
  endfacet
  facet normal 0 0 1
    outer loop
      vertex -42.7975 -13.9058 60
      vertex -52.3081 -16.9959 60
      vertex -44.4959 -32.3282 60
    endloop
  endfacet
  facet normal 0 0 1
    outer loop
      vertex -45 0 60
      vertex -55 0 60
      vertex -52.3081 -16.9959 60
    endloop
  endfacet
  facet normal -0.156434 0.987688 0
    outer loop
      vertex 0 55 40
      vertex -16.9959 52.3081 60
      vertex 0 55 60
    endloop
  endfacet
  facet normal -0.156434 0.987688 0
    outer loop
      vertex -16.9959 52.3081 60
      vertex 0 55 40
      vertex -16.9959 52.3081 40
    endloop
  endfacet
  facet normal 0.891006 -0.453991 0
    outer loop
      vertex 44.4959 -32.3282 60
      vertex 52.3081 -16.9959 40
      vertex 52.3081 -16.9959 60
    endloop
  endfacet
  facet normal 0.891006 -0.453991 0
    outer loop
      vertex 52.3081 -16.9959 40
      vertex 44.4959 -32.3282 60
      vertex 44.4959 -32.3282 40
    endloop
  endfacet
  facet normal -0.987688 -0.156434 0
    outer loop
      vertex -52.3081 -16.9959 40
      vertex -55 0 60
      vertex -55 0 40
    endloop
  endfacet
  facet normal -0.987688 -0.156434 0
    outer loop
      vertex -55 0 60
      vertex -52.3081 -16.9959 40
      vertex -52.3081 -16.9959 60
    endloop
  endfacet
  facet normal -0.707107 0.707107 0
    outer loop
      vertex -44.4959 32.3282 40
      vertex -32.3282 44.4959 60
      vertex -32.3282 44.4959 40
    endloop
  endfacet
  facet normal -0.707107 0.707107 0
    outer loop
      vertex -32.3282 44.4959 60
      vertex -44.4959 32.3282 40
      vertex -44.4959 32.3282 60
    endloop
  endfacet
  facet normal -0.891006 0.453991 0
    outer loop
      vertex -52.3081 16.9959 40
      vertex -44.4959 32.3282 60
      vertex -44.4959 32.3282 40
    endloop
  endfacet
  facet normal -0.891006 0.453991 0
    outer loop
      vertex -44.4959 32.3282 60
      vertex -52.3081 16.9959 40
      vertex -52.3081 16.9959 60
    endloop
  endfacet
  facet normal 0.987688 -0.156434 0
    outer loop
      vertex 52.3081 -16.9959 60
      vertex 55 0 40
      vertex 55 0 60
    endloop
  endfacet
  facet normal 0.987688 -0.156434 0
    outer loop
      vertex 55 0 40
      vertex 52.3081 -16.9959 60
      vertex 52.3081 -16.9959 40
    endloop
  endfacet
  facet normal -0.707107 -0.707107 0
    outer loop
      vertex -32.3282 -44.4959 40
      vertex -44.4959 -32.3282 60
      vertex -44.4959 -32.3282 40
    endloop
  endfacet
  facet normal -0.707107 -0.707107 0
    outer loop
      vertex -44.4959 -32.3282 60
      vertex -32.3282 -44.4959 40
      vertex -32.3282 -44.4959 60
    endloop
  endfacet
  facet normal -0.156434 -0.987688 0
    outer loop
      vertex -16.9959 -52.3081 40
      vertex 0 -55 60
      vertex -16.9959 -52.3081 60
    endloop
  endfacet
  facet normal -0.156434 -0.987688 -0
    outer loop
      vertex 0 -55 60
      vertex -16.9959 -52.3081 40
      vertex 0 -55 40
    endloop
  endfacet
  facet normal -0.891006 -0.453991 0
    outer loop
      vertex -44.4959 -32.3282 40
      vertex -52.3081 -16.9959 60
      vertex -52.3081 -16.9959 40
    endloop
  endfacet
  facet normal -0.891006 -0.453991 0
    outer loop
      vertex -52.3081 -16.9959 60
      vertex -44.4959 -32.3282 40
      vertex -44.4959 -32.3282 60
    endloop
  endfacet
  facet normal 0.453991 -0.891006 0
    outer loop
      vertex 16.9959 -52.3081 40
      vertex 32.3282 -44.4959 60
      vertex 16.9959 -52.3081 60
    endloop
  endfacet
  facet normal 0.453991 -0.891006 0
    outer loop
      vertex 32.3282 -44.4959 60
      vertex 16.9959 -52.3081 40
      vertex 32.3282 -44.4959 40
    endloop
  endfacet
  facet normal 0.707107 -0.707107 0
    outer loop
      vertex 32.3282 -44.4959 60
      vertex 44.4959 -32.3282 40
      vertex 44.4959 -32.3282 60
    endloop
  endfacet
  facet normal 0.707107 -0.707107 0
    outer loop
      vertex 44.4959 -32.3282 40
      vertex 32.3282 -44.4959 60
      vertex 32.3282 -44.4959 40
    endloop
  endfacet
  facet normal -0.453991 -0.891006 0
    outer loop
      vertex -32.3282 -44.4959 40
      vertex -16.9959 -52.3081 60
      vertex -32.3282 -44.4959 60
    endloop
  endfacet
  facet normal -0.453991 -0.891006 -0
    outer loop
      vertex -16.9959 -52.3081 60
      vertex -32.3282 -44.4959 40
      vertex -16.9959 -52.3081 40
    endloop
  endfacet
  facet normal -0.987688 -0.156435 0
    outer loop
      vertex 45 0 40
      vertex 42.7975 13.9058 60
      vertex 42.7975 13.9058 40
    endloop
  endfacet
  facet normal -0.987688 -0.156435 0
    outer loop
      vertex 42.7975 13.9058 60
      vertex 45 0 40
      vertex 45 0 60
    endloop
  endfacet
  facet normal 0.987688 -0.156435 0
    outer loop
      vertex -45 0 60
      vertex -42.7975 13.9058 40
      vertex -42.7975 13.9058 60
    endloop
  endfacet
  facet normal 0.987688 -0.156435 0
    outer loop
      vertex -42.7975 13.9058 40
      vertex -45 0 60
      vertex -45 0 40
    endloop
  endfacet
  facet normal -0.156435 -0.987688 0
    outer loop
      vertex 0 45 40
      vertex 13.9058 42.7975 60
      vertex 0 45 60
    endloop
  endfacet
  facet normal -0.156435 -0.987688 -0
    outer loop
      vertex 13.9058 42.7975 60
      vertex 0 45 40
      vertex 13.9058 42.7975 40
    endloop
  endfacet
  facet normal 0.156435 0.987688 -0
    outer loop
      vertex 0 -45 40
      vertex -13.9058 -42.7975 60
      vertex 0 -45 60
    endloop
  endfacet
  facet normal 0.156435 0.987688 0
    outer loop
      vertex -13.9058 -42.7975 60
      vertex 0 -45 40
      vertex -13.9058 -42.7975 40
    endloop
  endfacet
  facet normal -0.707107 -0.707107 0
    outer loop
      vertex 36.4058 26.4503 40
      vertex 26.4503 36.4058 60
      vertex 26.4503 36.4058 40
    endloop
  endfacet
  facet normal -0.707107 -0.707107 0
    outer loop
      vertex 26.4503 36.4058 60
      vertex 36.4058 26.4503 40
      vertex 36.4058 26.4503 60
    endloop
  endfacet
  facet normal -0.891007 -0.45399 0
    outer loop
      vertex 42.7975 13.9058 40
      vertex 36.4058 26.4503 60
      vertex 36.4058 26.4503 40
    endloop
  endfacet
  facet normal -0.891007 -0.45399 0
    outer loop
      vertex 36.4058 26.4503 60
      vertex 42.7975 13.9058 40
      vertex 42.7975 13.9058 60
    endloop
  endfacet
  facet normal -0.45399 -0.891007 0
    outer loop
      vertex 13.9058 42.7975 40
      vertex 26.4503 36.4058 60
      vertex 13.9058 42.7975 60
    endloop
  endfacet
  facet normal -0.45399 -0.891007 -0
    outer loop
      vertex 26.4503 36.4058 60
      vertex 13.9058 42.7975 40
      vertex 26.4503 36.4058 40
    endloop
  endfacet
  facet normal 0.45399 -0.891007 0
    outer loop
      vertex -26.4503 36.4058 40
      vertex -13.9058 42.7975 60
      vertex -26.4503 36.4058 60
    endloop
  endfacet
  facet normal 0.45399 -0.891007 0
    outer loop
      vertex -13.9058 42.7975 60
      vertex -26.4503 36.4058 40
      vertex -13.9058 42.7975 40
    endloop
  endfacet
  facet normal 0.707107 -0.707107 0
    outer loop
      vertex -36.4058 26.4503 60
      vertex -26.4503 36.4058 40
      vertex -26.4503 36.4058 60
    endloop
  endfacet
  facet normal 0.707107 -0.707107 0
    outer loop
      vertex -26.4503 36.4058 40
      vertex -36.4058 26.4503 60
      vertex -36.4058 26.4503 40
    endloop
  endfacet
  facet normal 0.156435 -0.987688 0
    outer loop
      vertex -13.9058 42.7975 40
      vertex 0 45 60
      vertex -13.9058 42.7975 60
    endloop
  endfacet
  facet normal 0.156435 -0.987688 0
    outer loop
      vertex 0 45 60
      vertex -13.9058 42.7975 40
      vertex 0 45 40
    endloop
  endfacet
  facet normal -0.891007 0.45399 0
    outer loop
      vertex 36.4058 -26.4503 40
      vertex 42.7975 -13.9058 60
      vertex 42.7975 -13.9058 40
    endloop
  endfacet
  facet normal -0.891007 0.45399 0
    outer loop
      vertex 42.7975 -13.9058 60
      vertex 36.4058 -26.4503 40
      vertex 36.4058 -26.4503 60
    endloop
  endfacet
  facet normal 0.707107 0.707107 0
    outer loop
      vertex -26.4503 -36.4058 60
      vertex -36.4058 -26.4503 40
      vertex -36.4058 -26.4503 60
    endloop
  endfacet
  facet normal 0.707107 0.707107 0
    outer loop
      vertex -36.4058 -26.4503 40
      vertex -26.4503 -36.4058 60
      vertex -26.4503 -36.4058 40
    endloop
  endfacet
  facet normal 0.987688 0.156435 0
    outer loop
      vertex -42.7975 -13.9058 60
      vertex -45 0 40
      vertex -45 0 60
    endloop
  endfacet
  facet normal 0.987688 0.156435 0
    outer loop
      vertex -45 0 40
      vertex -42.7975 -13.9058 60
      vertex -42.7975 -13.9058 40
    endloop
  endfacet
  facet normal 0.891007 -0.45399 0
    outer loop
      vertex -42.7975 13.9058 60
      vertex -36.4058 26.4503 40
      vertex -36.4058 26.4503 60
    endloop
  endfacet
  facet normal 0.891007 -0.45399 0
    outer loop
      vertex -36.4058 26.4503 40
      vertex -42.7975 13.9058 60
      vertex -42.7975 13.9058 40
    endloop
  endfacet
  facet normal -0.156435 0.987688 0
    outer loop
      vertex 13.9058 -42.7975 40
      vertex 0 -45 60
      vertex 13.9058 -42.7975 60
    endloop
  endfacet
  facet normal -0.156435 0.987688 0
    outer loop
      vertex 0 -45 60
      vertex 13.9058 -42.7975 40
      vertex 0 -45 40
    endloop
  endfacet
  facet normal -0.707107 0.707107 0
    outer loop
      vertex 26.4503 -36.4058 40
      vertex 36.4058 -26.4503 60
      vertex 36.4058 -26.4503 40
    endloop
  endfacet
  facet normal -0.707107 0.707107 0
    outer loop
      vertex 36.4058 -26.4503 60
      vertex 26.4503 -36.4058 40
      vertex 26.4503 -36.4058 60
    endloop
  endfacet
  facet normal 0.45399 0.891007 -0
    outer loop
      vertex -13.9058 -42.7975 40
      vertex -26.4503 -36.4058 60
      vertex -13.9058 -42.7975 60
    endloop
  endfacet
  facet normal 0.45399 0.891007 0
    outer loop
      vertex -26.4503 -36.4058 60
      vertex -13.9058 -42.7975 40
      vertex -26.4503 -36.4058 40
    endloop
  endfacet
  facet normal 0.891007 0.45399 0
    outer loop
      vertex -36.4058 -26.4503 60
      vertex -42.7975 -13.9058 40
      vertex -42.7975 -13.9058 60
    endloop
  endfacet
  facet normal 0.891007 0.45399 0
    outer loop
      vertex -42.7975 -13.9058 40
      vertex -36.4058 -26.4503 60
      vertex -36.4058 -26.4503 40
    endloop
  endfacet
  facet normal -0.987688 0.156435 0
    outer loop
      vertex 42.7975 -13.9058 40
      vertex 45 0 60
      vertex 45 0 40
    endloop
  endfacet
  facet normal -0.987688 0.156435 0
    outer loop
      vertex 45 0 60
      vertex 42.7975 -13.9058 40
      vertex 42.7975 -13.9058 60
    endloop
  endfacet
  facet normal -0.45399 0.891007 0
    outer loop
      vertex 26.4503 -36.4058 40
      vertex 13.9058 -42.7975 60
      vertex 26.4503 -36.4058 60
    endloop
  endfacet
  facet normal -0.45399 0.891007 0
    outer loop
      vertex 13.9058 -42.7975 60
      vertex 26.4503 -36.4058 40
      vertex 13.9058 -42.7975 40
    endloop
  endfacet
endsolid OpenSCAD_Model
